<?xml version="1.0" encoding="utf-8"?>
<!-- Generator: Adobe Illustrator 25.2.0, SVG Export Plug-In . SVG Version: 6.00 Build 0)  -->
<svg version="1.1" id="Layer_1" xmlns="http://www.w3.org/2000/svg" xmlns:xlink="http://www.w3.org/1999/xlink" x="0px" y="0px"
	 viewBox="0 0 727.2 478.4" style="enable-background:new 0 0 727.2 478.4;" xml:space="preserve">
<style type="text/css">
	.st0{fill:none;stroke:#00415D;stroke-width:4;stroke-miterlimit:10;}
	.st1{fill:#A0616A;}
	.st2{fill:#F1AD00;}
	.st3{fill:#2F2E41;}
	.st4{fill:#00415D;}
	.st5{opacity:0.2;enable-background:new    ;}
	.st6{fill:#B6BFC3;}
	.st7{fill:#3F3D56;}
	.st8{fill:#A8BEC7;}
</style>
<path class="st0" d="M334.3-1.2c-68.4,0-123.8,55.4-123.8,123.8s55.4,123.8,123.8,123.8S458.1,191,458.1,122.6l0,0
	C458,54.2,402.6-1.2,334.3-1.2z"/>
<path class="st1" d="M404.7,227.2c3.2-4.5,9.5-5.6,14-2.4c0.8,0.6,1.5,1.2,2.1,2l33.8-11.5l-4.7,18l-31.4,8.2
	c-4.6,3.1-10.9,1.9-14-2.7C402.1,235.3,402.2,230.7,404.7,227.2L404.7,227.2z"/>
<path class="st1" d="M571.3,298.5c3.1-4.6,1.8-10.9-2.9-13.9c-0.5-0.3-1-0.6-1.6-0.8l2.6-35.6l-16.2,9.1l0,32.5
	c-1.9,5.3,0.9,11,6.2,12.9C563.9,304.1,568.8,302.4,571.3,298.5L571.3,298.5z"/>
<path class="st2" d="M567.3,160l4.4,113.4l-18-1l-4-119l3.8-1.8c4.8-2.3,10.6-0.2,12.9,4.6C566.9,157.4,567.2,158.7,567.3,160z"/>
<polygon class="st1" points="511.6,466.2 499.4,466.2 493.5,418.9 511.6,418.9 "/>
<path class="st3" d="M490.6,462.7h23.6l0,0v14.9l0,0h-38.5l0,0l0,0C475.7,469.4,482.4,462.7,490.6,462.7L490.6,462.7z"/>
<polygon class="st1" points="613.6,451.6 602.5,456.7 577.3,416.3 593.7,408.7 "/>
<path class="st3" d="M593.1,457.2l21.5-9.9l0,0l6.3,13.5l0,0l-35,16.2l0,0l0,0C582.4,469.5,585.6,460.7,593.1,457.2z"/>
<path class="st4" d="M482.5,311.9l12.6,144.3l17-2l12.6-131.8l69.4,125.8l18-5c0,0-57.9-173.3-62.4-187.8c-4.9-15.9-44-22-44-22
	l-1.5-1.5C487.4,254.5,480.7,283.8,482.5,311.9z"/>
<circle class="st1" cx="549.9" cy="114.5" r="24.6"/>
<path class="st2" d="M565.3,161.9l-17.1,89c0,0-25.9-5.2-35.2-11.4c-3.7-2.5-7-5-9.8-7.4c-0.5-0.5-1.1-0.9-1.6-1.3
	c-4.6-4-7.5-6.9-7.5-6.9s1.5-7.2,3.3-15.8c2-9.6,4.5-20.9,5.7-25.5c2.8-10.1,12.2-21.9,19.5-29.9c5.4-5.9,13.7-8.4,21.5-6.4
	l13.3,3.4C562.9,151.1,566.3,156.5,565.3,161.9z"/>
<path class="st5" d="M524,200.8c0,0-9.2,19.1-22.3,30c-4.6-4-7.5-6.9-7.5-6.9s1.5-7.2,3.3-15.8C508.5,202.2,519.9,198.6,524,200.8z"
	/>
<path class="st2" d="M540.3,165.9c-0.9-0.5-1.9-0.8-2.8-1.1c-4.1-1.1-8.4-0.1-11.5,2.7l-54,39.5L429,221.4l7.8,18.3l64-15.6
	l42.4-37.7c5.1-4.9,5.3-12.9,0.4-18C542.6,167.3,541.5,166.5,540.3,165.9z"/>
<path class="st6" d="M551.3,138.9c3.5-5.2,6.3-12.5,2.4-17.5c-3.8-4.9-11.3-4.2-17.1-6.4c-8.1-3-12.8-12.5-11.3-21.1
	s8.3-15.6,16.5-18.5s17.3-2,25.3,1.4c9.8,4.1,18.3,12,21.8,22.1s1.6,22.1-5.7,29.8c-7.9,8.3-20.2,10.5-31.6,10.4"/>
<path class="st6" d="M589.9,109.9c1,5.6,7.1,8.8,12.8,9.5s11.5-0.2,17,1.3c9.7,2.6,16.1,11.9,19.6,21.3s5.1,19.5,9.6,28.4
	s13.4,16.8,23.4,15.9c-5.2,13.2-20.2,19.7-33.4,14.4c-7.1-2.8-12.6-8.7-15-16c-3.7-11.3,0.5-24.8-5.9-34.8
	c-3.5-5.5-9.7-8.8-15.6-11.7s-12.1-5.9-16.1-11.1s-4.8-13.6,0.1-18"/>
<path class="st7" d="M709.5,478.1H389.2c-0.7,0-1.2-0.5-1.2-1.2s0.5-1.2,1.2-1.2c0,0,0,0,0,0h320.3c0.7,0,1.2,0.5,1.2,1.2
	S710.1,478.1,709.5,478.1C709.5,478.1,709.5,478.1,709.5,478.1z"/>
<path class="st6" d="M321.5,478.1H1.2c-0.7,0-1.2-0.5-1.2-1.2c0-0.7,0.5-1.2,1.2-1.2c0,0,0,0,0,0h320.3c0.7,0,1.2,0.5,1.2,1.2
	C322.7,477.6,322.1,478.1,321.5,478.1z"/>
<polygon class="st1" points="205.8,465.1 217.5,461.5 209.2,414.6 191.9,419.9 "/>
<path class="st3" d="M243.5,465.5l-36.8,11.3l0,0l-4.4-14.2l0,0l22.6-6.9C232.7,453.2,241.1,457.6,243.5,465.5L243.5,465.5
	L243.5,465.5z"/>
<polygon class="st1" points="101.8,465.4 114.1,465.4 119.9,418.1 101.8,418.1 "/>
<path class="st3" d="M137.7,476.8l-38.5,0l0,0l0-14.9l0,0l23.6,0C131,461.9,137.7,468.6,137.7,476.8L137.7,476.8L137.7,476.8z"/>
<path class="st1" d="M104.9,308.3c-3.8-3.3-4.2-9.1-0.8-12.9c0.4-0.4,0.7-0.8,1.2-1.1l9.5-119.7l19.3,4.8l-15.5,116.8
	c2.9,4.2,1.9,9.9-2.3,12.8C112.8,311.4,108.1,311.2,104.9,308.3z"/>
<circle class="st1" cx="150.6" cy="104.6" r="24.6"/>
<path class="st6" d="M117.1,177c-5.8-8-6-19,0.3-26.7c4.1-5,11-9,22.4-9c30.5,0,42.1,24.2,42.1,24.2s12.6,23.2,5.3,44.2
	s-7.4,23.2-7.4,23.2l-48.4-4.2C131.4,228.7,139.5,207.8,117.1,177z"/>
<path class="st6" d="M102.1,197.9l10.4-34.1c2.6-8.6,11.8-13.5,20.4-10.8c0.9,0.3,1.8,0.7,2.7,1.1l0,0c7.7,4,10.9,13.2,7.5,21.1
	l-13.3,30.2L102.1,197.9z"/>
<path class="st8" d="M178.8,227.6l41.1,212.7l-22.1,6.3L144,306.6l-24.2,143.2L96.6,453c0,0-10.2-189.5,34.8-224.3L178.8,227.6z"/>
<path class="st1" d="M234,205.5c-0.4,0.4-0.7,0.9-1,1.3l-49.5,2.4l-9.5-29.1l-16.6,7.9l15.6,43.4l61.3-12c3.9,4.3,10.6,4.6,14.8,0.7
	c4.3-3.9,4.6-10.6,0.7-14.8c-3.9-4.3-10.6-4.6-14.8-0.7C234.5,204.9,234.2,205.2,234,205.5L234,205.5z"/>
<path class="st6" d="M149.9,168.5c-1.1-9,5.4-17.1,14.3-18.1c1-0.1,2-0.1,2.9-0.1l0,0c8.6,0.6,15.3,7.7,15.3,16.3v33l-28.4,4.4
	L149.9,168.5z"/>
<path class="st3" d="M156,129.4c-3.7,0-6.5-3.9-6.4-7.6s2.6-6.9,5.6-9.1s6.5-3.5,9.8-5.1s6.6-3.6,8.7-6.6c2.5-4.1,2.9-9.1,1-13.5
	c-1.9-4.3-5.2-7.9-9.3-10.2c-6.2-3.6-13.4-4.7-20.4-3.2c-6.9,1.5-17.2,5.7-21.2,11.5L119.6,97c-4.3,5.2-1,12.8,1.7,19
	s8.2,10.8,14.6,13c6.4,2.1,13.3,2.3,19.8,0.6"/>
<path class="st3" d="M133.6,91.2c-1.8-2.9-4.9-4.7-8.2-5.8c-13.5-4.5-28,2.8-32.5,16.3c-0.7,2.2-1.2,4.5-1.3,6.7
	c-0.3,6.3,1.6,12.5,2.8,18.7s1.4,13.1-2,18.4c-2.6,4-7,6.6-11.3,8.8c-3.6,1.8-7.5,3.5-11.5,3.2s-8-3.5-7.9-7.5
	c-1.3,2.9-2.2,5.9-2.7,9.1c-0.3,3.2,0.5,6.6,2.8,8.8c3.3,3.2,8.6,3,13.1,2.3c9.9-1.5,19.8-4.3,27.6-10.5s13-16.5,10.9-26.2
	c-0.9-4.1-2.9-7.8-4.5-11.6s-2.9-8-2.1-12.1c0.9-4.3,3.6-7.9,7.5-10c3.8-2,8.3-2.7,12.5-1.9c2.8,0.5,6.3,1.2,8-1.1
	c0.9-1.5,0.9-3.4-0.1-4.8c-1-1.4-2.2-2.6-3.6-3.6"/>
<path class="st4" d="M384.5,155.8c0,6.6-1.1,12.6-3.4,17.9c-2.3,5.4-5.5,9.9-9.8,13.6c-3.5,3.1-7.7,5.6-12.5,7.5v23.1h-15.5v-19.3
	c-2.7,0.3-5.5,0.4-8.4,0.4c-2.2,0-4.2-0.1-6.3-0.2v19.1h-15.5v-22.1c-2.9-1-5.6-2.1-8.2-3.5c-8.2-4.5-15.3-10.6-21-18.5l12.8-10.7
	c5.1,6.8,10.7,11.9,16.9,15.4c6.2,3.5,13.5,5.3,21.9,5.3c10.3,0,18.2-2.5,23.6-7.4c5.4-5,8.1-11.6,8.1-19.8c0-6.9-2.1-12.2-6.2-15.9
	c-4.1-3.7-10.9-6.7-20.4-8.9l-11.8-2.7c-13.2-3-23.3-7.6-30.2-13.7c-7-6.1-10.4-14.7-10.4-25.9c0-6.3,1.2-12,3.5-16.9
	c2.3-4.9,5.6-9.1,9.8-12.4c3.3-2.6,7.2-4.7,11.6-6.3V27.3h15.5v23.2c2.4-0.2,4.8-0.3,7.3-0.3c2.5,0,5,0.1,7.3,0.3V27.3h15.5v26.6
	c1.8,0.7,3.5,1.4,5.1,2.3c7.8,4,14.3,9.8,19.7,17.5l-13,9.5c-4-5.5-8.8-9.8-14.4-13c-5.6-3.2-12.7-4.7-21-4.7
	c-9.2,0-16.5,2-21.8,5.9c-5.3,3.9-7.9,9.8-7.9,17.6c0,6.9,2.2,12.1,6.7,15.6c4.5,3.5,11.2,6.3,20.3,8.4l11.8,2.7
	c14.2,3.2,24.4,8,30.7,14.4C381.3,136.4,384.5,145,384.5,155.8z"/>
</svg>
